<?xml version="1.0" encoding="utf-8"?>
<!-- Generator: Adobe Illustrator 25.4.1, SVG Export Plug-In . SVG Version: 6.00 Build 0)  -->
<svg version="1.1" id="Layer_1" xmlns="http://www.w3.org/2000/svg" xmlns:xlink="http://www.w3.org/1999/xlink" x="0px" y="0px"
	 viewBox="0 0 224.58 48.08" style="enable-background:new 0 0 224.58 48.08;" xml:space="preserve">
<style type="text/css">
	.st0{fill:#BC9962;}
	.st1{fill:#FFFFFF;}
</style>
<g>
	<g>
		<g>
			<g>
				<path class="st1" d="M133.64,17.01c0,1.87-0.23,3.67-0.68,5.4c-0.45,1.73-1.07,3.31-1.87,4.75c-0.79,1.43-1.74,2.71-2.85,3.82
					c-1.11,1.12-2.32,1.97-3.63,2.56l10.25,14.48h-11.47l-8.71-12.36h-6.18v12.36h-9.9V0.14h18.06c2.73,0,5.04,0.39,6.95,1.16
					c1.91,0.77,3.59,1.89,5.04,3.35c0.59,0.64,1.19,1.41,1.81,2.32c0.61,0.91,1.15,1.9,1.6,2.97c0.45,1.07,0.83,2.21,1.12,3.42
					C133.49,14.56,133.64,15.78,133.64,17.01z M123.73,17.49c0-2.5-0.76-4.51-2.26-6.01c-1.51-1.5-3.5-2.25-5.97-2.25h-7v17.76h7.41
					c1.23,0,2.33-0.28,3.29-0.85c0.96-0.57,1.78-1.31,2.47-2.22c0.69-0.91,1.2-1.92,1.54-3.04
					C123.56,19.75,123.73,18.62,123.73,17.49z"/>
			</g>
			<g>
				<path class="st1" d="M156.43,47.95V9.7h-11.82V0.34h33.74V9.7h-12.16v38.25H156.43z"/>
			</g>
			<g>
				<path class="st1" d="M214.68,0.14h9.9v47.81h-9.9V37.7h-15.64v10.25h-9.9V0.14h9.9v28.48h15.64V0.14z"/>
			</g>
			<g>
				<path class="st1" d="M42.32,0v10.22v37.86h-8.99L10.36,17.63v30.45H0V10.22V0h9.47l13.58,17.63l9.05,11.93V13.1v-2.88V0H42.32z"
					/>
			</g>
			<g>
				<polygon class="st1" points="70.79,21.56 66.65,17.42 70.79,13.32 74.89,17.42 				"/>
				<path class="st1" d="M70.77,9.18c4.55,0,8.26,3.7,8.26,8.26s-3.7,8.26-8.26,8.26s-8.26-3.7-8.26-8.26S66.22,9.18,70.77,9.18
					 M70.77,0c-9.63,0-17.44,7.81-17.44,17.44s7.81,17.44,17.44,17.44s17.44-7.81,17.44-17.44S80.4,0,70.77,0L70.77,0z"/>
				<rect x="53.33" y="40.62" class="st1" width="34.6" height="7.46"/>
			</g>
		</g>
	</g>
</g>
</svg>
